<?xml version="1.0" standalone="no"?>
<!DOCTYPE svg PUBLIC "-//W3C//DTD SVG 20010904//EN"
 "http://www.w3.org/TR/2001/REC-SVG-20010904/DTD/svg10.dtd">
<svg version="1.0" xmlns="http://www.w3.org/2000/svg"
 width="160.000000pt" height="160.000000pt" viewBox="0 0 160.000000 160.000000"
 preserveAspectRatio="xMidYMid meet">
<metadata>
Created by potrace 1.11, written by Peter Selinger 2001-2013
</metadata>
<g transform="translate(0.000000,160.000000) scale(0.100000,-0.100000)"
fill="#000000" stroke="none">
<path d="M0 942 l0 -657 203 0 c111 0 207 4 214 8 6 4 14 4 16 -1 3 -4 167 -7
364 -6 197 0 365 -3 374 -7 9 -5 20 -5 23 -1 4 4 96 7 204 7 l197 0 3 658 2
657 -800 0 -800 0 0 -658z m330 283 c0 -8 -8 -15 -18 -15 -10 0 -19 7 -19 15
0 8 9 15 19 15 10 0 18 -7 18 -15z m-170 -45 c0 -11 -7 -20 -15 -20 -8 0 -15
9 -15 20 0 11 7 20 15 20 8 0 15 -9 15 -20z m290 -5 c0 -18 5 -25 19 -25 16 0
20 -8 23 -37 3 -38 3 -38 51 -41 39 -3 47 -6 47 -23 0 -12 7 -19 20 -19 13 0
20 -7 20 -20 0 -13 -7 -20 -19 -20 -13 0 -21 -8 -23 -22 -3 -20 -8 -23 -45
-20 -38 3 -43 0 -43 -17 0 -14 -6 -21 -20 -21 -13 0 -20 -7 -20 -20 0 -17 -7
-20 -40 -20 -36 0 -40 -2 -40 -25 0 -23 -4 -25 -45 -25 -38 0 -45 -3 -45 -20
0 -17 -7 -20 -40 -20 -33 0 -40 3 -40 20 0 15 -7 20 -25 20 -20 0 -25 5 -25
25 0 20 5 25 25 25 18 0 25 5 25 20 0 13 7 20 20 20 13 0 20 7 20 20 0 13 7
20 20 20 17 0 20 7 22 45 1 25 2 53 2 63 1 10 -8 18 -22 20 -15 2 -22 9 -20
20 2 13 -6 18 -39 20 -29 2 -43 8 -43 18 0 8 5 14 11 14 5 0 8 -4 5 -8 -3 -5
1 -9 9 -9 8 0 12 4 9 9 -3 4 0 8 5 8 6 0 11 -6 11 -12 0 -10 2 -10 9 0 13 22
54 10 58 -16 2 -15 -1 -21 -8 -17 -6 4 -8 12 -6 19 3 7 -4 13 -14 13 -17 2
-18 0 -4 -13 8 -9 13 -19 10 -24 -6 -10 21 -7 31 3 14 14 35 7 32 -10 -2 -15
6 -19 49 -21 34 -2 51 -7 49 -15 -1 -7 -1 -8 2 -3 2 4 9 2 14 -5 8 -11 9 -10
5 3 -5 15 15 43 24 34 2 -3 5 10 5 27 1 18 -1 26 -4 19 -3 -10 -10 -5 -23 14
-10 15 -16 31 -14 34 2 4 -18 6 -46 5 -27 -1 -52 2 -55 7 -3 4 22 8 55 8 58 0
61 -1 61 -25z m-5 -37 c23 -34 23 -36 6 -52 -23 -21 -31 -12 -31 38 l0 41 -45
-3 c-25 -2 -45 0 -45 5 0 5 20 9 45 8 40 0 48 -4 70 -37z m815 -208 c0 -17 7
-20 40 -20 33 0 40 -3 40 -19 0 -13 8 -21 23 -23 18 -2 23 -10 25 -45 3 -35 7
-43 23 -43 17 0 19 -7 19 -65 0 -58 -2 -65 -19 -65 -16 0 -20 -8 -23 -37 -2
-31 -7 -39 -25 -41 -15 -2 -23 -10 -23 -23 0 -12 -7 -19 -20 -19 -18 0 -20 -7
-20 -65 0 -58 2 -65 20 -65 17 0 20 -7 20 -45 l0 -46 -62 3 -63 3 2 43 c3 39
1 42 -22 42 -18 0 -25 5 -25 20 0 13 -7 20 -20 20 -18 0 -20 -7 -20 -65 l0
-65 -65 0 c-63 0 -65 1 -65 25 0 20 5 25 25 25 24 0 25 3 25 60 0 53 2 60 20
60 15 0 20 7 20 25 0 18 -5 25 -20 25 -19 0 -20 7 -20 105 l0 105 -25 0 c-25
0 -25 -1 -25 -85 l0 -85 -40 0 c-33 0 -40 -3 -40 -20 0 -18 -7 -20 -65 -20
-63 0 -65 -1 -65 -25 0 -24 -3 -25 -60 -25 -57 0 -60 1 -60 25 0 18 -5 25 -20
25 -18 0 -20 -7 -20 -65 0 -58 2 -65 20 -65 13 0 20 -7 20 -20 0 -13 -7 -20
-20 -20 -14 0 -20 -7 -20 -24 0 -24 -2 -24 -85 -25 -84 -1 -85 0 -85 24 0 18
5 25 20 25 17 0 20 7 20 40 0 33 -3 40 -20 40 -18 0 -20 7 -20 65 0 58 -2 65
-20 65 -17 0 -20 7 -20 40 0 33 3 40 20 40 15 0 20 7 20 25 0 18 5 25 20 25
13 0 20 7 20 20 0 15 7 20 25 20 18 0 25 5 25 20 0 13 7 20 20 20 13 0 20 7
20 20 0 13 7 20 20 20 15 0 20 7 20 25 0 23 4 24 63 27 47 2 62 7 62 18 0 12
17 16 83 18 74 3 82 5 82 22 0 19 8 20 170 20 163 0 170 -1 170 -20z"/>
<path d="M296 1092 c-2 -4 5 -19 16 -32 l20 -25 -16 27 c-12 20 -12 28 -3 31
9 4 9 6 0 6 -6 1 -14 -3 -17 -7z"/>
<path d="M330 970 c0 -15 7 -20 25 -20 18 0 25 5 25 20 0 15 -7 20 -25 20 -18
0 -25 -5 -25 -20z"/>
<path d="M434 1111 c0 -23 4 -27 13 -19 11 8 11 14 1 27 -7 9 -13 17 -14 19
-1 2 -1 -10 0 -27z"/>
<path d="M1050 760 c0 -13 7 -20 20 -20 13 0 20 7 20 20 0 13 -7 20 -20 20
-13 0 -20 -7 -20 -20z"/>
<path d="M710 720 c0 -13 7 -20 20 -20 17 0 20 -7 20 -45 0 -38 -3 -45 -20
-45 -13 0 -20 -7 -20 -20 0 -13 -7 -20 -20 -20 -13 0 -20 -7 -20 -20 0 -13 7
-20 20 -20 13 0 20 7 20 20 0 13 7 20 20 20 13 0 20 7 20 20 0 13 7 20 20 20
17 0 20 7 20 45 0 38 -3 45 -20 45 -13 0 -20 7 -20 20 0 13 -7 20 -20 20 -13
0 -20 -7 -20 -20z"/>
<path d="M1090 460 c0 -13 7 -20 20 -20 13 0 20 7 20 20 0 13 -7 20 -20 20
-13 0 -20 -7 -20 -20z"/>
</g>
</svg>
